<?xml version="1.0" standalone="no"?>
<!DOCTYPE svg PUBLIC "-//W3C//DTD SVG 20010904//EN"
 "http://www.w3.org/TR/2001/REC-SVG-20010904/DTD/svg10.dtd">
<svg version="1.0" xmlns="http://www.w3.org/2000/svg"
 width="1548.000000pt" height="1548.000000pt" viewBox="0 0 1548.000000 1548.000000"
 preserveAspectRatio="xMidYMid meet">
<metadata>
Created by potrace 1.14, written by Peter Selinger 2001-2017
</metadata>
<g transform="translate(0.000000,1548.000000) scale(0.100000,-0.100000)"
fill="#000000" stroke="none">
<path d="M602 10481 c-12 -26 -35 -77 -51 -112 -130 -283 -164 -363 -160 -369
2 -3 117 -5 254 -6 172 -1 249 -4 248 -12 -2 -6 -28 -50 -60 -99 -31 -48 -72
-116 -90 -151 -17 -35 -36 -69 -41 -75 -14 -20 -99 -217 -143 -333 -49 -129
-120 -361 -135 -437 -2 -10 -5 -26 -8 -35 -3 -9 -7 -28 -10 -42 -2 -14 -11
-59 -20 -100 -8 -41 -18 -95 -21 -120 -3 -25 -8 -56 -10 -70 -7 -41 -15 -130
-20 -222 -4 -82 -3 -86 15 -82 47 10 115 24 190 39 78 16 167 20 465 19 303 0
573 -8 685 -20 25 -2 65 -6 90 -9 25 -2 79 -9 120 -15 41 -6 89 -13 105 -15
38 -6 72 -13 93 -19 9 -3 33 -8 52 -11 170 -29 502 -143 665 -228 22 -12 42
-21 45 -22 3 0 10 -3 15 -7 8 -5 52 -29 150 -82 11 -6 34 -21 52 -33 17 -13
36 -23 42 -23 6 0 11 -4 11 -10 0 -5 6 -10 13 -10 7 0 22 -8 33 -18 10 -10 35
-28 54 -42 143 -98 315 -259 522 -488 50 -56 99 -75 160 -63 3 0 10 16 14 34
4 17 8 655 9 1417 l1 1385 93 255 c51 140 94 261 96 268 4 9 -77 12 -380 12
l-385 0 -44 -92 c-24 -51 -65 -138 -91 -193 -119 -250 -118 -248 -98 -262 10
-7 23 -16 28 -20 6 -4 23 -15 38 -23 16 -8 58 -41 94 -74 64 -59 65 -59 41
-72 -12 -7 -31 -13 -40 -14 -10 0 -18 -4 -18 -10 0 -5 -5 -10 -11 -10 -16 0
-173 -81 -177 -91 -2 -5 -12 -9 -23 -9 -10 0 -19 -4 -19 -9 0 -5 -13 -14 -30
-21 -16 -7 -30 -16 -30 -20 0 -4 -10 -11 -22 -17 -20 -9 -172 -114 -203 -140
-5 -4 -30 -24 -55 -43 -25 -19 -47 -37 -50 -40 -3 -3 -17 -15 -31 -25 -107
-82 -449 -415 -539 -524 -54 -65 -69 -81 -78 -81 -4 0 -26 5 -50 10 -23 6 -59
13 -80 15 -20 3 -48 8 -62 10 -25 5 -95 14 -160 21 -151 16 -847 25 -933 12
-35 -6 -58 4 -38 16 5 3 12 23 16 43 4 21 10 42 13 48 4 5 7 15 8 21 5 33 135
301 180 371 19 29 34 58 34 63 0 6 5 10 10 10 6 0 10 5 10 11 0 6 12 27 27 47
67 92 108 147 113 152 3 3 23 28 45 55 65 83 262 274 334 324 l33 24 413 1
c227 1 415 3 417 6 6 8 35 74 37 85 2 6 11 26 22 45 18 34 179 390 179 397 0
1 -438 3 -974 3 l-974 0 -20 -49z m2897 -924 c34 -75 61 -147 55 -147 -4 0 -2
-6 3 -12 13 -16 73 -249 87 -338 10 -63 14 -85 16 -85 1 0 3 -18 5 -40 2 -22
7 -60 11 -85 11 -81 17 -145 30 -335 7 -101 13 -916 7 -927 -2 -4 -40 36 -85
90 -111 131 -135 158 -263 286 -127 127 -244 236 -256 236 -4 0 -9 4 -11 8 -7
17 -221 172 -237 172 -5 0 -11 4 -13 8 -5 14 -168 107 -278 160 -89 43 -193
87 -273 115 -17 6 -16 11 14 50 38 48 343 353 410 409 189 160 425 319 591
400 96 47 156 75 165 77 1 1 11 -18 22 -42z"/>
<path d="M4735 10463 c-41 -96 -95 -215 -106 -233 -5 -8 -14 -26 -19 -40 -6
-14 -13 -32 -17 -40 -3 -8 -7 -17 -8 -20 -1 -3 -14 -31 -28 -63 -15 -32 -27
-61 -27 -66 0 -4 308 -8 684 -8 l684 0 33 -38 c19 -21 39 -43 44 -49 27 -27
95 -124 95 -134 0 -7 4 -12 9 -12 11 0 77 -130 103 -200 63 -171 78 -388 40
-560 l-8 -35 -54 2 c-30 1 -89 4 -130 8 -101 8 -334 8 -412 0 -104 -11 -209
-31 -288 -56 -41 -12 -78 -22 -82 -21 -5 1 -8 -2 -8 -8 0 -5 -9 -10 -20 -10
-21 0 -60 -19 -71 -33 -3 -5 -10 -9 -15 -9 -37 0 -206 -106 -310 -194 -69 -58
-151 -144 -179 -186 -5 -8 -27 -40 -47 -70 -36 -53 -118 -208 -123 -232 -1 -6
-5 -18 -8 -26 -16 -43 -37 -115 -37 -128 0 -8 24 7 58 35 226 195 536 318 897
359 28 3 68 8 90 11 70 9 538 11 595 3 30 -5 78 -11 106 -14 130 -15 378 -74
474 -113 8 -4 17 -7 20 -8 99 -34 298 -134 372 -186 14 -11 29 -19 32 -19 4 0
12 -5 19 -10 7 -6 50 -38 97 -72 47 -34 117 -88 155 -121 87 -74 302 -290 375
-377 30 -36 57 -67 60 -70 20 -20 160 -211 160 -218 0 -6 4 -12 9 -14 4 -1 34
-43 66 -93 32 -49 72 -112 90 -140 41 -64 85 -140 152 -264 77 -141 83 -150
118 -168 25 -13 58 -2 78 27 21 30 15 104 -13 176 -119 308 -254 599 -352 761
-21 35 -38 65 -38 67 0 6 -161 249 -169 256 -3 3 -21 28 -40 55 -61 88 -222
285 -233 285 -6 0 -8 3 -5 6 4 4 -49 61 -116 128 -126 125 -272 249 -389 329
-60 42 -273 167 -284 167 -2 0 -37 15 -76 33 -59 27 -197 77 -255 93 -8 2 -6
18 7 56 56 164 91 325 106 478 2 25 6 68 8 95 6 63 7 270 1 310 -16 112 -17
145 -4 146 8 0 301 1 652 2 l639 0 25 56 c14 31 36 79 49 106 69 149 104 227
104 230 0 3 14 33 30 67 17 34 30 65 30 70 0 4 -757 8 -1683 8 l-1683 0 -29
-67z"/>
<path d="M8763 10523 c3 -5 17 -35 32 -68 71 -155 85 -186 124 -270 42 -87 77
-165 109 -235 38 -84 128 -276 135 -288 5 -7 14 -9 20 -5 7 4 47 6 90 4 l77
-2 53 113 c30 62 61 129 69 148 9 19 37 80 63 135 93 197 113 241 145 310 17
39 40 87 51 108 10 21 19 42 19 47 0 6 -182 10 -496 10 -272 0 -493 -3 -491
-7z"/>
<path d="M10440 10424 c-28 -58 -50 -108 -50 -109 0 -4 -61 -139 -93 -205 -12
-25 -22 -47 -23 -50 0 -3 -6 -18 -12 -33 -7 -16 -12 -30 -12 -31 0 -2 111 -3
248 -4 136 0 253 -1 259 -1 7 -1 -14 -41 -47 -91 -69 -103 -173 -298 -220
-415 -18 -44 -37 -84 -41 -90 -5 -5 -9 -15 -9 -21 0 -7 -5 -25 -12 -41 -6 -15
-12 -30 -13 -33 -1 -3 -4 -12 -8 -20 -7 -18 -61 -182 -63 -192 -1 -5 -2 -9 -4
-10 -1 -2 -3 -10 -5 -18 -1 -8 -14 -58 -28 -110 -27 -99 -30 -110 -52 -225 -8
-38 -16 -79 -18 -90 -4 -18 -10 -59 -22 -150 -2 -17 -7 -70 -10 -120 -3 -49
-7 -105 -8 -123 -3 -32 -2 -33 27 -29 17 3 50 10 74 16 23 7 60 14 83 16 22 2
43 7 48 9 39 24 496 25 701 1 141 -16 423 -77 448 -97 6 -6 12 -8 12 -5 0 6
181 -53 225 -73 11 -5 70 -30 130 -55 61 -26 128 -57 150 -70 22 -13 42 -23
45 -22 8 1 338 -189 350 -203 3 -3 46 -32 95 -64 88 -58 301 -216 340 -252 11
-11 36 -32 55 -48 138 -113 429 -396 555 -540 120 -138 136 -151 193 -159 30
-5 60 11 63 31 0 4 2 16 5 27 2 11 4 45 4 75 -1 30 0 64 0 75 2 33 2 69 0 95
-2 30 -2 596 0 625 1 11 1 34 1 50 0 17 0 53 0 80 0 28 0 56 0 63 -1 15 -1 54
0 90 1 15 0 38 -1 52 -2 30 -2 596 0 625 1 11 1 34 1 50 0 17 0 53 0 80 0 28
0 56 0 63 0 6 -1 23 -1 37 1 14 1 40 1 58 0 17 0 55 0 82 0 52 -1 188 -2 215
0 16 0 111 1 145 0 11 0 54 0 95 -1 41 -1 80 -1 85 0 17 0 119 1 140 0 11 0
49 0 85 0 36 0 88 1 115 0 28 0 57 0 65 -1 8 -1 26 0 40 1 14 1 39 1 55 0 24
47 172 85 265 3 8 7 20 9 25 1 6 23 66 48 134 25 69 46 128 46 133 0 4 -172 8
-383 8 l-383 0 -44 -92 c-24 -51 -77 -163 -118 -248 -102 -214 -97 -192 -49
-223 90 -56 167 -157 246 -318 40 -83 124 -310 136 -364 1 -5 7 -28 13 -50 12
-43 54 -240 76 -357 5 -25 22 -138 32 -208 10 -69 13 -100 18 -165 3 -33 8
-80 10 -105 23 -204 27 -319 33 -835 l5 -480 -30 35 c-16 19 -76 91 -133 160
-116 140 -110 134 -299 341 -224 246 -527 527 -683 633 -31 22 -57 43 -57 48
0 4 -7 8 -15 8 -8 0 -15 5 -15 10 0 6 -5 10 -11 10 -6 0 -28 13 -48 28 -32 25
-107 73 -196 124 -195 113 -526 242 -700 273 -11 2 -29 5 -40 8 -11 3 -51 10
-90 16 -65 10 -109 16 -210 26 -61 6 -392 6 -459 -1 -47 -4 -58 -3 -53 8 2 8
13 42 22 76 10 35 22 65 26 68 5 3 9 14 9 24 0 26 144 307 210 410 139 215
313 410 504 564 l48 39 413 1 c227 1 416 3 418 6 5 5 97 199 97 205 0 1 22 50
50 108 27 58 52 117 56 131 3 15 9 26 13 26 4 0 12 14 18 30 l11 30 -974 0
-974 0 -50 -106z"/>
<path d="M14490 10521 c0 -5 23 -58 51 -117 66 -140 108 -232 111 -242 1 -4
18 -41 38 -82 20 -41 72 -153 115 -248 65 -141 83 -172 97 -168 10 2 21 0 24
-5 3 -5 11 -6 17 -2 6 4 39 7 72 8 68 0 61 -7 134 155 19 41 60 129 91 195 31
66 64 136 73 155 8 19 41 89 72 155 31 66 64 136 72 155 9 19 18 38 20 43 2 4
-219 7 -491 7 -282 0 -496 -4 -496 -9z"/>
<path d="M85 7874 c-5 -1 -22 -5 -36 -8 -63 -14 -63 -125 0 -193 18 -19 396
-492 441 -552 14 -18 32 -40 40 -49 9 -10 49 -57 90 -107 41 -49 80 -95 85
-101 6 -6 21 -24 35 -40 208 -241 262 -302 310 -355 14 -15 50 -55 80 -90 30
-34 66 -74 80 -89 14 -15 68 -74 120 -131 336 -365 622 -641 825 -795 113 -86
183 -134 195 -134 5 0 10 -4 10 -10 0 -5 6 -10 14 -10 8 0 16 -4 18 -8 5 -12
172 -96 259 -130 138 -55 303 -93 468 -109 88 -9 457 -8 501 0 76 14 97 19
140 34 25 8 50 16 55 17 6 1 32 12 59 24 27 12 51 22 53 22 2 0 24 14 48 30
24 17 46 30 49 30 7 0 36 23 103 85 31 28 59 52 64 53 5 2 9 10 9 18 0 8 4 14
8 14 9 0 56 66 104 145 26 42 87 185 94 220 7 37 26 120 34 145 8 30 5 341 -4
390 -27 144 -46 207 -87 295 -32 71 -62 110 -144 190 -121 120 -257 175 -442
180 -234 7 -369 -61 -457 -228 -39 -76 -53 -127 -71 -257 -7 -48 -8 -201 -1
-207 3 -3 16 5 30 18 43 41 54 48 103 70 71 32 83 36 142 50 122 27 295 26
405 -2 40 -11 141 -54 160 -70 6 -5 26 -21 44 -35 108 -87 158 -264 110 -393
-26 -69 -98 -142 -186 -189 -34 -18 -62 -30 -62 -26 0 3 -6 1 -14 -5 -8 -7
-22 -14 -32 -16 -11 -2 -44 -11 -74 -19 -198 -54 -600 -69 -860 -32 -94 13
-122 19 -210 42 -371 98 -710 279 -1024 545 -141 120 -359 338 -503 504 -29
33 -64 74 -78 90 -14 17 -40 47 -58 68 -18 22 -48 56 -67 77 -19 21 -51 57
-69 80 -19 24 -40 48 -46 54 -5 6 -30 36 -55 66 -24 30 -51 63 -60 72 -8 9
-19 23 -25 30 -19 25 -100 123 -105 128 -3 3 -21 25 -40 50 -19 24 -42 52 -50
61 -16 18 -45 52 -168 199 -94 113 -203 224 -253 257 -36 24 -86 42 -104 37z"/>
</g>
</svg>
