<svg xmlns="http://www.w3.org/2000/svg" width="773.926" height="279.053" viewBox="0 0 773.926 279.053">
  <path id="Path_1" data-name="Path 1" d="M213.135,63.477a55.48,55.48,0,0,1-3.906,21.24,48.886,48.886,0,0,1-10.62,16.235,46.422,46.422,0,0,1-15.991,10.376,54.711,54.711,0,0,1-20.264,3.662,157.964,157.964,0,0,1-20.508-1.221,77.394,77.394,0,0,1-17.822-4.517,91.161,91.161,0,0,1-16.968-8.789A156.7,156.7,0,0,1,89.111,86.548Q79.59,78.125,68.359,66.406T43.213,39.063Q32.227,26.611,25.269,18.433T13.184,3.784Q8.057-2.686,3.662-8.3T-6.836-21.24A17.556,17.556,0,0,1-8.545-23.8a6.269,6.269,0,0,1-.732-3.052q0-4.395,4.639-4.395,3.174,0,7.324,3.784a129.321,129.321,0,0,1,10.742,11.6Q20.02-8.057,29.663,3.784t23.8,27.954Q61.523,41.016,71.655,50.9A144.9,144.9,0,0,0,94.482,68.97a131.027,131.027,0,0,0,28.2,13.55,104.23,104.23,0,0,0,34.3,5.371,145.926,145.926,0,0,0,18.555-1.1,56.625,56.625,0,0,0,14.648-3.662,25.517,25.517,0,0,0,9.521-6.47,13.954,13.954,0,0,0,3.418-9.521A18.171,18.171,0,0,0,195.8,52.124q-7.324-5.737-18.555-5.737-17.822,0-24.9,8.545a17.846,17.846,0,0,0-.122-2.2,17.841,17.841,0,0,1-.122-2.2q0-14.893,5.981-22.949t19.165-8.057q16.113,0,26,11.23T213.135,63.477ZM197.266-164.062,187.5-137.207V-.977q0,5.859-2.441,5.859a8.864,8.864,0,0,1-6.348-2.93q-16.6-19.531-34.3-30.273a146.119,146.119,0,0,0-35.645-15.869A167.2,167.2,0,0,0,73.12-50.415q-17.7-1.1-34.058-1.1-6.348,0-10.254.122t-7.2.488a56.492,56.492,0,0,0-6.47,1.1q-3.174.732-7.812,1.709a143.219,143.219,0,0,1,2.93-26.245,200.218,200.218,0,0,1,6.714-24.78A163.935,163.935,0,0,1,26-120.605a115.755,115.755,0,0,1,10.132-16.6H9.766l12.207-26.855h97.412l-12.207,26.855h-41.5a99.143,99.143,0,0,0-13.916,12.451,124.094,124.094,0,0,0-11.963,15.015,130.934,130.934,0,0,0-9.4,16.235,85.481,85.481,0,0,0-5.981,15.869q4.15-.488,7.935-.61t7.935-.122q13.916,0,26.489.61a143.6,143.6,0,0,1,24.536,3.3,162.989,162.989,0,0,1,11.6-13.062q7.446-7.69,16.479-15.381a199.65,199.65,0,0,1,19.165-14.4A102.414,102.414,0,0,1,158.2-127.686,40.068,40.068,0,0,0,146-137.207l12.7-26.855ZM104.492-71.045a130.092,130.092,0,0,1,35.4,18.555q17.578,12.7,36.621,36.377V-42.236q0-27.1-3.052-45.288t-8.667-29.907a93.675,93.675,0,0,0-18.066,9.033A178.564,178.564,0,0,0,130-96.313,177.688,177.688,0,0,0,115.479-83.13Q108.887-76.416,104.492-71.045Zm292.969-93.018-12.207,26.855H320.068q.488,3.906.854,7.568t.366,7.08q0,4.883-.488,10.254t-1.465,10.742q-.977,5.371-2.319,10.132a84.869,84.869,0,0,1-2.808,8.423,101.006,101.006,0,0,1,23.315,9.766q12.817,7.08,26.245,20.142t26.245,32.837Q402.832-.488,413.086,27.344a10.263,10.263,0,0,1,.977,4.639q0,4.639-3.662,4.639-2.2,0-4.395-4.15Q391.357,4.639,375.854-13.062T344.6-40.894A102.437,102.437,0,0,0,312.988-54.81a135.4,135.4,0,0,0-31.494-3.784q-22.217,0-39.307,4.761a71.451,71.451,0,0,0-30.273,17.212,60.129,60.129,0,0,1,6.714-17.212,60.3,60.3,0,0,1,13.55-16.235,70.156,70.156,0,0,1,20.508-11.963q11.963-4.639,27.588-4.639,5.127,0,10.01.244t10.986.977a48.615,48.615,0,0,0,1.221-6.47,48.773,48.773,0,0,0,.488-5.737q0-22.217-17.578-39.551H216.8L229-164.062Zm81.055,0-20.264,43.457H448.73l-20.02-43.457Zm211.914,0-9.766,26.855V23.438q0,5.859-2.441,5.859a8.864,8.864,0,0,1-6.348-2.93,270.4,270.4,0,0,0-34.3-34.058,228.814,228.814,0,0,0-35.645-24.292,163.518,163.518,0,0,0-35.645-14.526,131.015,131.015,0,0,0-34.058-4.761q-6.348,0-10.254.122t-7.2.488a56.49,56.49,0,0,0-6.47,1.1q-3.174.732-7.812,1.709a143.217,143.217,0,0,1,2.93-26.245,200.219,200.219,0,0,1,6.714-24.78,170.676,170.676,0,0,1,9.033-21.606A113.138,113.138,0,0,1,529.3-137.207H502.93l12.207-26.855h97.412l-12.207,26.855h-41.5a99.143,99.143,0,0,0-13.916,12.451,124.1,124.1,0,0,0-11.963,15.015,126.6,126.6,0,0,0-9.4,16.357,88.665,88.665,0,0,0-5.981,15.991q4.15-.488,7.935-.61t7.935-.122a122.394,122.394,0,0,1,36.133,5.249,133.218,133.218,0,0,1,33.447,15.869,203.283,203.283,0,0,1,32.715,26.978A465.855,465.855,0,0,1,669.678,8.3V-17.822q0-21.973-1.953-42.114a258.07,258.07,0,0,0-5.859-36.133q-3.906-15.991-9.644-26.855T639.16-137.207l12.7-26.855Zm74.219,0-20.264,43.457h-9.521l-20.02-43.457Z" transform="translate(9.277 164.063)" fill="#fff"/>
</svg>
